<svg width="116" height="154" viewBox="0 0 116 154" fill="none" xmlns="http://www.w3.org/2000/svg">
<path d="M81.6229 97.9203C78.0316 99.8733 73.1343 99.8733 69.2164 98.2459C65.2985 96.9438 61.7072 94.3399 58.4422 91.736C55.1772 89.1321 51.5859 86.8534 48.3209 84.2495C50.9328 84.2495 53.5449 84.5751 55.8301 85.226C52.2388 83.9239 49.3004 81.32 47.3415 78.3905C46.0354 76.7631 45.3825 74.8101 44.0765 73.1823C41.7909 69.9272 38.1996 67.6489 33.9552 66.6724C38.1996 65.045 42.7704 65.045 47.0149 66.6724C44.0765 65.6959 41.4646 64.7194 38.5262 63.4173C36.8939 62.7664 35.5878 62.1152 34.2818 60.8134C32.9757 59.1859 32.6494 57.2329 31.9962 55.6052C30.6902 52.3501 27.7518 49.7462 24.8133 47.7932C27.4252 48.1188 30.3636 48.1188 32.9757 48.4441C31.6696 45.8401 28.4049 45.5145 25.7928 44.538C20.8955 42.585 18.2836 37.7025 15.9981 32.82C18.6099 32.4943 21.5483 33.1456 23.8339 34.4474C20.5689 32.1687 16.651 29.8904 14.6921 26.3097C13.7126 24.3567 13.0597 22.4037 12.4065 20.4507C11.1005 17.1955 10.4476 14.5916 9.46811 11.9877C9.14152 10.0347 8.48864 8.40727 7.50917 6.77956C5.87682 3.85004 2.61182 1.89702 0 0.269613C3.91788 -0.38129 8.16235 0.269613 12.0802 0.920516C15.9981 1.57142 19.916 2.22263 23.5073 3.19913C32.9754 6.12866 41.1378 13.2898 45.0556 22.4037C46.0351 20.4507 46.0351 17.8467 45.0556 15.8937C50.6059 21.4272 56.4827 27.6118 57.4621 35.0983C58.4416 33.1452 58.7682 30.5413 58.115 28.2627C66.9303 34.1218 72.8071 43.5612 74.4394 53.9775C75.7455 50.7224 75.7455 48.4441 75.0923 45.1889C77.0512 49.4206 80.9691 52.6754 83.5809 56.5814C86.846 61.464 88.1517 67.9739 86.8459 73.8329C88.152 73.5073 89.4578 72.5308 90.1109 71.229C93.0494 75.786 93.3759 81.9706 92.0699 87.1787C91.417 89.4574 90.4375 91.7357 88.8049 93.6887C87.1725 95.6417 84.887 96.9438 82.6015 96.9438L81.6229 97.9203Z" fill="#50C878"/>
<path d="M23.0778 13.2571C23.0778 13.2571 23.4056 13.5847 24.061 13.9119C24.7163 14.2392 25.6995 15.222 27.0106 16.2044C28.3216 17.1869 29.6323 18.4969 31.2712 19.8066C32.9097 21.1167 34.5486 22.754 36.5149 24.7189C38.4813 26.6838 40.4477 28.6487 42.4141 30.6136C44.3805 32.906 46.6747 35.1982 48.9686 37.4907C51.2628 40.1104 53.2292 42.7305 55.5231 45.3503C57.4895 47.97 59.7837 50.9174 61.7501 53.5374C63.7165 56.4848 66.0107 59.1045 67.6492 62.0519C69.6156 64.9992 71.582 67.619 73.2205 70.5663C74.8591 73.5137 76.4979 76.1334 78.1365 78.7535C79.775 81.3733 81.0861 83.9933 82.3971 86.2855C83.7081 88.578 85.0188 90.5429 85.6745 92.5078C86.6577 94.4727 87.6409 96.11 88.2962 97.42C89.6072 100.04 90.5904 101.677 90.5904 101.677L83.7081 104.952C83.7081 104.952 83.0528 103.315 81.7417 100.695C81.0864 99.3849 80.4307 97.7476 79.4475 95.7827C78.4643 93.8178 77.4811 91.8529 76.4979 89.5604C75.1869 87.2679 74.2037 84.6482 72.893 82.0284C71.5823 79.4087 69.9434 76.7886 68.3049 73.8413C66.6663 70.8939 65.0275 68.2742 63.3889 65.3268C61.7504 62.3795 59.784 59.4321 57.8176 56.4848C55.8512 53.5374 53.8849 50.9177 51.9185 47.9703C49.9521 45.3506 47.9857 42.4032 46.0193 40.1108C44.0529 37.491 42.0866 35.1985 40.1202 32.906C38.1538 30.6136 36.1874 28.6487 34.5489 26.6838C32.9103 24.7189 30.9439 23.0816 29.6329 21.7715C27.9944 20.4615 26.6833 19.1518 25.7001 18.1693C24.717 17.1869 23.7338 16.532 23.0784 15.8768C22.4231 15.5493 22.0952 15.222 22.0952 15.222L23.0778 13.2571Z" fill="#228B22"/>
<path d="M97.7205 100.533H73.2331C71.6007 100.533 69.968 101.869 69.6417 103.539C69.3151 105.877 70.9478 107.881 73.2331 107.881H73.5597C74.8658 107.881 76.1716 108.883 76.1716 110.553V114.895H95.4349V110.553C95.4349 109.217 96.4144 107.881 98.0468 107.881C99.6792 107.881 101.312 106.545 101.638 104.875C101.638 102.537 100.006 100.533 97.7205 100.533Z" fill="#3A5569"/>
<path d="M88.6436 113.79H83.3699C68.5381 113.79 56.3429 125.107 56.3429 139.011V146.448C56.3429 150.328 59.9684 153.562 64.2532 153.562H108.09C112.375 153.562 116 150.328 116 146.448V139.011C115.67 124.784 103.805 113.79 88.6436 113.79Z" fill="#637888"/>
</svg>
