<?xml version="1.0" standalone="no"?>
<!DOCTYPE svg PUBLIC "-//W3C//DTD SVG 20010904//EN"
 "http://www.w3.org/TR/2001/REC-SVG-20010904/DTD/svg10.dtd">
<svg version="1.0" xmlns="http://www.w3.org/2000/svg"
 width="512.000000pt" height="512.000000pt" viewBox="0 0 512.000000 512.000000"
 preserveAspectRatio="xMidYMid meet">
<metadata>
Created by potrace 1.14, written by Peter Selinger 2001-2017
</metadata>
<g transform="translate(0.000000,512.000000) scale(0.100000,-0.100000)"
fill="#000000" stroke="none">
<path d="M2385 5004 c-223 -23 -415 -61 -575 -114 -1365 -450 -2055 -1938
-1514 -3265 121 -295 297 -558 534 -796 463 -465 1074 -719 1730 -719 542 0
1042 168 1487 501 126 94 368 336 462 462 282 378 445 794 490 1251 86 871
-316 1741 -1034 2241 -325 225 -674 363 -1070 421 -98 14 -431 26 -510 18z
m1373 -928 c222 -197 400 -362 395 -366 -4 -5 -190 -150 -412 -323 l-404 -315
-304 271 c-166 149 -303 275 -303 280 0 5 122 206 271 448 l271 439 42 -37
c22 -21 222 -200 444 -397z m-836 -846 l158 -140 -30 -49 c-85 -138 -153 -321
-186 -504 -22 -118 -23 -444 -2 -563 l14 -81 -720 -238 c-397 -131 -728 -240
-736 -243 -8 -3 118 142 280 324 221 247 299 328 315 327 11 -1 45 -5 76 -9
78 -9 149 16 203 70 60 60 81 108 81 191 0 81 -26 137 -93 197 -189 171 -494
-31 -417 -275 l17 -56 -33 -39 c-95 -110 -553 -621 -555 -619 -1 1 68 340 154
753 l155 752 98 -5 c237 -14 562 54 774 159 91 45 231 136 259 167 11 12 22
21 25 21 3 0 77 -63 163 -140z"/>
</g>
</svg>
